solid battery. STL generated by ONSHAPE BY PTC INC, 1.218. Units = meters
   facet normal 7.40637e-17 -0.422618 -0.906308
      outer loop
         vertex -0.01505 -0.173281 0.0467092
         vertex -0.01505 -0.0352958 -0.0176344
         vertex 0.01525 -0.0352958 -0.0176344
      endloop
   endfacet
   facet normal 7.40637e-17 -0.422618 -0.906308
      outer loop
         vertex 0.01525 -0.0352958 -0.0176344
         vertex 0.01525 -0.173281 0.0467092
         vertex -0.01505 -0.173281 0.0467092
      endloop
   endfacet
   facet normal 1 1.09819e-16 -2.71943e-17
      outer loop
         vertex 0.02225 -0.0323375 -0.0112903
         vertex 0.02225 -0.170323 0.0530534
         vertex 0.0222117 -0.170632 0.0523902
      endloop
   endfacet
   facet normal 0.994522 -0.0441756 -0.094735
      outer loop
         vertex 0.0222117 -0.0326467 -0.0119534
         vertex 0.0222117 -0.170632 0.0523902
         vertex 0.022097 -0.170938 0.0517343
      endloop
   endfacet
   facet normal 0.978148 -0.0878673 -0.188432
      outer loop
         vertex 0.022097 -0.0329526 -0.0126093
         vertex 0.022097 -0.170938 0.0517343
         vertex 0.0219074 -0.171237 0.0510929
      endloop
   endfacet
   facet normal 0.951057 -0.130596 -0.280065
      outer loop
         vertex 0.0219074 -0.0332517 -0.0132507
         vertex 0.0219074 -0.171237 0.0510929
         vertex 0.0216448 -0.171526 0.050473
      endloop
   endfacet
   facet normal 0.913545 -0.171894 -0.368629
      outer loop
         vertex 0.0216448 -0.0335408 -0.0138707
         vertex 0.0216448 -0.171526 0.050473
         vertex 0.0213122 -0.171802 0.0498813
      endloop
   endfacet
   facet normal 0.866025 -0.211309 -0.453154
      outer loop
         vertex 0.0213122 -0.0338167 -0.0144623
         vertex 0.0213122 -0.171802 0.0498813
         vertex 0.0209131 -0.172062 0.0493244
      endloop
   endfacet
   facet normal 0.809017 -0.248409 -0.532714
      outer loop
         vertex 0.0209131 -0.0340764 -0.0150193
         vertex 0.0209131 -0.172062 0.0493244
         vertex 0.020452 -0.172302 0.0488083
      endloop
   endfacet
   facet normal 0.743145 -0.282787 -0.606438
      outer loop
         vertex 0.020452 -0.034317 -0.0155353
         vertex 0.020452 -0.172302 0.0488083
         vertex 0.0199339 -0.172521 0.0483387
      endloop
   endfacet
   facet normal 0.669131 -0.314067 -0.673518
      outer loop
         vertex 0.0199339 -0.034536 -0.0160049
         vertex 0.0199339 -0.172521 0.0483387
         vertex 0.0193645 -0.172716 0.0479208
      endloop
   endfacet
   facet normal 0.587785 -0.341905 -0.733218
      outer loop
         vertex 0.0193645 -0.0347308 -0.0164228
         vertex 0.0193645 -0.172716 0.0479208
         vertex 0.01875 -0.172885 0.0475592
      endloop
   endfacet
   facet normal 0.5 -0.365998 -0.784886
      outer loop
         vertex 0.01875 -0.0348995 -0.0167845
         vertex 0.01875 -0.172885 0.0475592
         vertex 0.0180972 -0.173025 0.0472577
      endloop
   endfacet
   facet normal 0.406737 -0.386081 -0.827953
      outer loop
         vertex 0.0180972 -0.0350401 -0.0170859
         vertex 0.0180972 -0.173025 0.0472577
         vertex 0.0174131 -0.173136 0.0470197
      endloop
   endfacet
   facet normal 0.309017 -0.401934 -0.86195
      outer loop
         vertex 0.0174131 -0.035151 -0.0173239
         vertex 0.0174131 -0.173136 0.0470197
         vertex 0.0167054 -0.173217 0.0468478
      endloop
   endfacet
   facet normal 0.207912 -0.413383 -0.886503
      outer loop
         vertex 0.0167054 -0.0352312 -0.0174958
         vertex 0.0167054 -0.173217 0.0468478
         vertex 0.0159817 -0.173265 0.046744
      endloop
   endfacet
   facet normal 0.104528 -0.420303 -0.901343
      outer loop
         vertex 0.0159817 -0.0352796 -0.0175997
         vertex 0.0159817 -0.173265 0.046744
         vertex 0.01525 -0.173281 0.0467092
      endloop
   endfacet
   facet normal 8.29973e-17 -0.422618 -0.906308
      outer loop
         vertex 0.01525 -0.173281 0.0467092
         vertex 0.01525 -0.0352958 -0.0176344
         vertex 0.0159817 -0.0352796 -0.0175997
      endloop
   endfacet
   facet normal 0.104528 -0.420303 -0.901343
      outer loop
         vertex 0.0159817 -0.173265 0.046744
         vertex 0.0159817 -0.0352796 -0.0175997
         vertex 0.0167054 -0.0352312 -0.0174958
      endloop
   endfacet
   facet normal 0.207912 -0.413383 -0.886503
      outer loop
         vertex 0.0167054 -0.173217 0.0468478
         vertex 0.0167054 -0.0352312 -0.0174958
         vertex 0.0174131 -0.035151 -0.0173239
      endloop
   endfacet
   facet normal 0.309017 -0.401934 -0.86195
      outer loop
         vertex 0.0174131 -0.173136 0.0470197
         vertex 0.0174131 -0.035151 -0.0173239
         vertex 0.0180972 -0.0350401 -0.0170859
      endloop
   endfacet
   facet normal 0.406737 -0.386081 -0.827953
      outer loop
         vertex 0.0180972 -0.173025 0.0472577
         vertex 0.0180972 -0.0350401 -0.0170859
         vertex 0.01875 -0.0348995 -0.0167845
      endloop
   endfacet
   facet normal 0.5 -0.365998 -0.784886
      outer loop
         vertex 0.01875 -0.172885 0.0475592
         vertex 0.01875 -0.0348995 -0.0167845
         vertex 0.0193645 -0.0347308 -0.0164228
      endloop
   endfacet
   facet normal 0.587785 -0.341905 -0.733218
      outer loop
         vertex 0.0193645 -0.172716 0.0479208
         vertex 0.0193645 -0.0347308 -0.0164228
         vertex 0.0199339 -0.034536 -0.0160049
      endloop
   endfacet
   facet normal 0.669131 -0.314067 -0.673518
      outer loop
         vertex 0.0199339 -0.172521 0.0483387
         vertex 0.0199339 -0.034536 -0.0160049
         vertex 0.020452 -0.034317 -0.0155353
      endloop
   endfacet
   facet normal 0.743145 -0.282787 -0.606438
      outer loop
         vertex 0.020452 -0.172302 0.0488083
         vertex 0.020452 -0.034317 -0.0155353
         vertex 0.0209131 -0.0340764 -0.0150193
      endloop
   endfacet
   facet normal 0.809017 -0.248409 -0.532714
      outer loop
         vertex 0.0209131 -0.172062 0.0493244
         vertex 0.0209131 -0.0340764 -0.0150193
         vertex 0.0213122 -0.0338167 -0.0144623
      endloop
   endfacet
   facet normal 0.866025 -0.211309 -0.453154
      outer loop
         vertex 0.0213122 -0.171802 0.0498813
         vertex 0.0213122 -0.0338167 -0.0144623
         vertex 0.0216448 -0.0335408 -0.0138707
      endloop
   endfacet
   facet normal 0.913545 -0.171894 -0.368629
      outer loop
         vertex 0.0216448 -0.171526 0.050473
         vertex 0.0216448 -0.0335408 -0.0138707
         vertex 0.0219074 -0.0332517 -0.0132507
      endloop
   endfacet
   facet normal 0.951057 -0.130596 -0.280065
      outer loop
         vertex 0.0219074 -0.171237 0.0510929
         vertex 0.0219074 -0.0332517 -0.0132507
         vertex 0.022097 -0.0329526 -0.0126093
      endloop
   endfacet
   facet normal 0.978148 -0.0878673 -0.188432
      outer loop
         vertex 0.022097 -0.170938 0.0517343
         vertex 0.022097 -0.0329526 -0.0126093
         vertex 0.0222117 -0.0326467 -0.0119534
      endloop
   endfacet
   facet normal 0.994522 -0.0441756 -0.094735
      outer loop
         vertex 0.0222117 -0.170632 0.0523902
         vertex 0.0222117 -0.0326467 -0.0119534
         vertex 0.02225 -0.0323375 -0.0112903
      endloop
   endfacet
   facet normal 1 1.11022e-16 -2.77556e-17
      outer loop
         vertex 0.02225 -0.016278 0.0231494
         vertex 0.02225 -0.154263 0.0874931
         vertex 0.02225 -0.170323 0.0530534
      endloop
   endfacet
   facet normal 1 1.11022e-16 -2.77556e-17
      outer loop
         vertex 0.02225 -0.170323 0.0530534
         vertex 0.02225 -0.0323375 -0.0112903
         vertex 0.02225 -0.016278 0.0231494
      endloop
   endfacet
   facet normal -2.05462e-16 0.422618 0.906308
      outer loop
         vertex 0.01525 -0.0133197 0.0294936
         vertex 0.01525 -0.151305 0.0938372
         vertex 0.0159817 -0.151321 0.0938025
      endloop
   endfacet
   facet normal 0.104528 0.420303 0.901343
      outer loop
         vertex 0.0159817 -0.0133359 0.0294588
         vertex 0.0159817 -0.151321 0.0938025
         vertex 0.0167054 -0.15137 0.0936986
      endloop
   endfacet
   facet normal 0.207912 0.413383 0.886503
      outer loop
         vertex 0.0167054 -0.0133843 0.029355
         vertex 0.0167054 -0.15137 0.0936986
         vertex 0.0174131 -0.15145 0.0935267
      endloop
   endfacet
   facet normal 0.309017 0.401934 0.86195
      outer loop
         vertex 0.0174131 -0.0134645 0.0291831
         vertex 0.0174131 -0.15145 0.0935267
         vertex 0.0180972 -0.151561 0.0932887
      endloop
   endfacet
   facet normal 0.406737 0.386081 0.827953
      outer loop
         vertex 0.0180972 -0.0135754 0.0289451
         vertex 0.0180972 -0.151561 0.0932887
         vertex 0.01875 -0.151701 0.0929873
      endloop
   endfacet
   facet normal 0.5 0.365998 0.784886
      outer loop
         vertex 0.01875 -0.013716 0.0286436
         vertex 0.01875 -0.151701 0.0929873
         vertex 0.0193645 -0.15187 0.0926256
      endloop
   endfacet
   facet normal 0.587785 0.341905 0.733218
      outer loop
         vertex 0.0193645 -0.0138847 0.028282
         vertex 0.0193645 -0.15187 0.0926256
         vertex 0.0199339 -0.152065 0.0922077
      endloop
   endfacet
   facet normal 0.669131 0.314067 0.673518
      outer loop
         vertex 0.0199339 -0.0140795 0.0278641
         vertex 0.0199339 -0.152065 0.0922077
         vertex 0.020452 -0.152284 0.0917381
      endloop
   endfacet
   facet normal 0.743145 0.282787 0.606438
      outer loop
         vertex 0.020452 -0.0142985 0.0273945
         vertex 0.020452 -0.152284 0.0917381
         vertex 0.0209131 -0.152525 0.0912221
      endloop
   endfacet
   facet normal 0.809017 0.248409 0.532714
      outer loop
         vertex 0.0209131 -0.0145391 0.0268784
         vertex 0.0209131 -0.152525 0.0912221
         vertex 0.0213122 -0.152784 0.0906651
      endloop
   endfacet
   facet normal 0.866025 0.211309 0.453154
      outer loop
         vertex 0.0213122 -0.0147988 0.0263215
         vertex 0.0213122 -0.152784 0.0906651
         vertex 0.0216448 -0.15306 0.0900735
      endloop
   endfacet
   facet normal 0.913545 0.171894 0.368629
      outer loop
         vertex 0.0216448 -0.0150748 0.0257298
         vertex 0.0216448 -0.15306 0.0900735
         vertex 0.0219074 -0.153349 0.0894535
      endloop
   endfacet
   facet normal 0.951057 0.130596 0.280065
      outer loop
         vertex 0.0219074 -0.0153638 0.0251099
         vertex 0.0219074 -0.153349 0.0894535
         vertex 0.022097 -0.153648 0.0888121
      endloop
   endfacet
   facet normal 0.978148 0.0878673 0.188432
      outer loop
         vertex 0.022097 -0.0156629 0.0244685
         vertex 0.022097 -0.153648 0.0888121
         vertex 0.0222117 -0.153954 0.0881562
      endloop
   endfacet
   facet normal 0.994522 0.0441756 0.094735
      outer loop
         vertex 0.0222117 -0.0159688 0.0238126
         vertex 0.0222117 -0.153954 0.0881562
         vertex 0.02225 -0.154263 0.0874931
      endloop
   endfacet
   facet normal 1 5.88691e-16 9.9975e-16
      outer loop
         vertex 0.02225 -0.154263 0.0874931
         vertex 0.02225 -0.016278 0.0231494
         vertex 0.0222117 -0.0159688 0.0238126
      endloop
   endfacet
   facet normal 0.994522 0.0441756 0.094735
      outer loop
         vertex 0.0222117 -0.153954 0.0881562
         vertex 0.0222117 -0.0159688 0.0238126
         vertex 0.022097 -0.0156629 0.0244685
      endloop
   endfacet
   facet normal 0.978148 0.0878673 0.188432
      outer loop
         vertex 0.022097 -0.153648 0.0888121
         vertex 0.022097 -0.0156629 0.0244685
         vertex 0.0219074 -0.0153638 0.0251099
      endloop
   endfacet
   facet normal 0.951057 0.130596 0.280065
      outer loop
         vertex 0.0219074 -0.153349 0.0894535
         vertex 0.0219074 -0.0153638 0.0251099
         vertex 0.0216448 -0.0150748 0.0257298
      endloop
   endfacet
   facet normal 0.913545 0.171894 0.368629
      outer loop
         vertex 0.0216448 -0.15306 0.0900735
         vertex 0.0216448 -0.0150748 0.0257298
         vertex 0.0213122 -0.0147988 0.0263215
      endloop
   endfacet
   facet normal 0.866025 0.211309 0.453154
      outer loop
         vertex 0.0213122 -0.152784 0.0906651
         vertex 0.0213122 -0.0147988 0.0263215
         vertex 0.0209131 -0.0145391 0.0268784
      endloop
   endfacet
   facet normal 0.809017 0.248409 0.532714
      outer loop
         vertex 0.0209131 -0.152525 0.0912221
         vertex 0.0209131 -0.0145391 0.0268784
         vertex 0.020452 -0.0142985 0.0273945
      endloop
   endfacet
   facet normal 0.743145 0.282787 0.606438
      outer loop
         vertex 0.020452 -0.152284 0.0917381
         vertex 0.020452 -0.0142985 0.0273945
         vertex 0.0199339 -0.0140795 0.0278641
      endloop
   endfacet
   facet normal 0.669131 0.314067 0.673518
      outer loop
         vertex 0.0199339 -0.152065 0.0922077
         vertex 0.0199339 -0.0140795 0.0278641
         vertex 0.0193645 -0.0138847 0.028282
      endloop
   endfacet
   facet normal 0.587785 0.341905 0.733218
      outer loop
         vertex 0.0193645 -0.15187 0.0926256
         vertex 0.0193645 -0.0138847 0.028282
         vertex 0.01875 -0.013716 0.0286436
      endloop
   endfacet
   facet normal 0.5 0.365998 0.784886
      outer loop
         vertex 0.01875 -0.151701 0.0929873
         vertex 0.01875 -0.013716 0.0286436
         vertex 0.0180972 -0.0135754 0.0289451
      endloop
   endfacet
   facet normal 0.406737 0.386081 0.827953
      outer loop
         vertex 0.0180972 -0.151561 0.0932887
         vertex 0.0180972 -0.0135754 0.0289451
         vertex 0.0174131 -0.0134645 0.0291831
      endloop
   endfacet
   facet normal 0.309017 0.401934 0.86195
      outer loop
         vertex 0.0174131 -0.15145 0.0935267
         vertex 0.0174131 -0.0134645 0.0291831
         vertex 0.0167054 -0.0133843 0.029355
      endloop
   endfacet
   facet normal 0.207912 0.413383 0.886503
      outer loop
         vertex 0.0167054 -0.15137 0.0936986
         vertex 0.0167054 -0.0133843 0.029355
         vertex 0.0159817 -0.0133359 0.0294588
      endloop
   endfacet
   facet normal 0.104528 0.420303 0.901343
      outer loop
         vertex 0.0159817 -0.151321 0.0938025
         vertex 0.0159817 -0.0133359 0.0294588
         vertex 0.01525 -0.0133197 0.0294936
      endloop
   endfacet
   facet normal -7.40637e-17 0.422618 0.906308
      outer loop
         vertex -0.01505 -0.151305 0.0938372
         vertex 0.01525 -0.151305 0.0938372
         vertex 0.01525 -0.0133197 0.0294936
      endloop
   endfacet
   facet normal -7.40637e-17 0.422618 0.906308
      outer loop
         vertex 0.01525 -0.0133197 0.0294936
         vertex -0.01505 -0.0133197 0.0294936
         vertex -0.01505 -0.151305 0.0938372
      endloop
   endfacet
   facet normal 1.11022e-16 -0.906308 0.422618
      outer loop
         vertex 0.0180972 -0.173025 0.0472577
         vertex 0.01875 -0.172885 0.0475592
         vertex 0.0193645 -0.172716 0.0479208
      endloop
   endfacet
   facet normal 1.11022e-16 -0.906308 0.422618
      outer loop
         vertex -0.0172131 -0.15145 0.0935267
         vertex -0.0211122 -0.152784 0.0906651
         vertex -0.0214448 -0.15306 0.0900735
      endloop
   endfacet
   facet normal 1.11022e-16 -0.906308 0.422618
      outer loop
         vertex 0.02225 -0.154263 0.0874931
         vertex 0.0199339 -0.152065 0.0922077
         vertex 0.0193645 -0.15187 0.0926256
      endloop
   endfacet
   facet normal 1.11022e-16 -0.906308 0.422618
      outer loop
         vertex 0.02225 -0.154263 0.0874931
         vertex 0.0213122 -0.152784 0.0906651
         vertex 0.0209131 -0.152525 0.0912221
      endloop
   endfacet
   facet normal 1.11022e-16 -0.906308 0.422618
      outer loop
         vertex 0.02225 -0.154263 0.0874931
         vertex 0.0219074 -0.153349 0.0894535
         vertex 0.0216448 -0.15306 0.0900735
      endloop
   endfacet
   facet normal 1.11022e-16 -0.906308 0.422618
      outer loop
         vertex 0.0219074 -0.153349 0.0894535
         vertex 0.02225 -0.154263 0.0874931
         vertex 0.0222117 -0.153954 0.0881562
      endloop
   endfacet
   facet normal 1.11022e-16 -0.906308 0.422618
      outer loop
         vertex 0.0159817 -0.173265 0.046744
         vertex 0.0219074 -0.171237 0.0510929
         vertex 0.022097 -0.170938 0.0517343
      endloop
   endfacet
   facet normal 1.11022e-16 -0.906308 0.422618
      outer loop
         vertex 0.0159817 -0.173265 0.046744
         vertex 0.0209131 -0.172062 0.0493244
         vertex 0.0213122 -0.171802 0.0498813
      endloop
   endfacet
   facet normal 1.11022e-16 -0.906308 0.422618
      outer loop
         vertex 0.0174131 -0.173136 0.0470197
         vertex 0.0199339 -0.172521 0.0483387
         vertex 0.020452 -0.172302 0.0488083
      endloop
   endfacet
   facet normal 1.11022e-16 -0.906308 0.422618
      outer loop
         vertex 0.0199339 -0.172521 0.0483387
         vertex 0.0174131 -0.173136 0.0470197
         vertex 0.0180972 -0.173025 0.0472577
      endloop
   endfacet
   facet normal 1.11022e-16 -0.906308 0.422618
      outer loop
         vertex -0.0207131 -0.172062 0.0493244
         vertex -0.02205 -0.170323 0.0530534
         vertex -0.0220117 -0.170632 0.0523902
      endloop
   endfacet
   facet normal 1.11022e-16 -0.906308 0.422618
      outer loop
         vertex -0.0172131 -0.15145 0.0935267
         vertex -0.0207131 -0.152525 0.0912221
         vertex -0.0211122 -0.152784 0.0906651
      endloop
   endfacet
   facet normal 1.11022e-16 -0.906308 0.422618
      outer loop
         vertex -0.0172131 -0.15145 0.0935267
         vertex -0.0191645 -0.15187 0.0926256
         vertex -0.0197339 -0.152065 0.0922077
      endloop
   endfacet
   facet normal 1.11022e-16 -0.906308 0.422618
      outer loop
         vertex -0.0191645 -0.15187 0.0926256
         vertex -0.0172131 -0.15145 0.0935267
         vertex -0.0178972 -0.151561 0.0932887
      endloop
   endfacet
   facet normal 1.11022e-16 -0.906308 0.422618
      outer loop
         vertex 0.0193645 -0.15187 0.0926256
         vertex 0.01875 -0.151701 0.0929873
         vertex 0.02225 -0.154263 0.0874931
      endloop
   endfacet
   facet normal 1.11022e-16 -0.906308 0.422618
      outer loop
         vertex 0.0209131 -0.152525 0.0912221
         vertex 0.020452 -0.152284 0.0917381
         vertex 0.02225 -0.154263 0.0874931
      endloop
   endfacet
   facet normal 1.11022e-16 -0.906308 0.422618
      outer loop
         vertex 0.0222117 -0.153954 0.0881562
         vertex 0.022097 -0.153648 0.0888121
         vertex 0.0219074 -0.153349 0.0894535
      endloop
   endfacet
   facet normal 1.11022e-16 -0.906308 0.422618
      outer loop
         vertex 0.022097 -0.170938 0.0517343
         vertex 0.0222117 -0.170632 0.0523902
         vertex 0.0159817 -0.173265 0.046744
      endloop
   endfacet
   facet normal 1.11022e-16 -0.906308 0.422618
      outer loop
         vertex 0.0213122 -0.171802 0.0498813
         vertex 0.0216448 -0.171526 0.050473
         vertex 0.0159817 -0.173265 0.046744
      endloop
   endfacet
   facet normal 1.11022e-16 -0.906308 0.422618
      outer loop
         vertex 0.0193645 -0.172716 0.0479208
         vertex 0.0199339 -0.172521 0.0483387
         vertex 0.0180972 -0.173025 0.0472577
      endloop
   endfacet
   facet normal 1.11022e-16 -0.906308 0.422618
      outer loop
         vertex 0.0209131 -0.172062 0.0493244
         vertex 0.0159817 -0.173265 0.046744
         vertex 0.0167054 -0.173217 0.0468478
      endloop
   endfacet
   facet normal 1.11022e-16 -0.906308 0.422618
      outer loop
         vertex -0.02205 -0.170323 0.0530534
         vertex -0.01855 -0.172885 0.0475592
         vertex -0.0178972 -0.173025 0.0472577
      endloop
   endfacet
   facet normal 1.11022e-16 -0.906308 0.422618
      outer loop
         vertex -0.02205 -0.170323 0.0530534
         vertex -0.0197339 -0.172521 0.0483387
         vertex -0.0191645 -0.172716 0.0479208
      endloop
   endfacet
   facet normal 1.11022e-16 -0.906308 0.422618
      outer loop
         vertex -0.0217074 -0.171237 0.0510929
         vertex -0.0214448 -0.171526 0.050473
         vertex -0.0211122 -0.171802 0.0498813
      endloop
   endfacet
   facet normal 1.11022e-16 -0.906308 0.422618
      outer loop
         vertex -0.0220117 -0.170632 0.0523902
         vertex -0.021897 -0.170938 0.0517343
         vertex -0.0207131 -0.172062 0.0493244
      endloop
   endfacet
   facet normal 1.11022e-16 -0.906308 0.422618
      outer loop
         vertex -0.0172131 -0.15145 0.0935267
         vertex -0.0217074 -0.153349 0.0894535
         vertex -0.021897 -0.153648 0.0888121
      endloop
   endfacet
   facet normal 1.11022e-16 -0.906308 0.422618
      outer loop
         vertex -0.0172131 -0.15145 0.0935267
         vertex -0.020252 -0.152284 0.0917381
         vertex -0.0207131 -0.152525 0.0912221
      endloop
   endfacet
   facet normal 1.11022e-16 -0.906308 0.422618
      outer loop
         vertex -0.0178972 -0.151561 0.0932887
         vertex -0.01855 -0.151701 0.0929873
         vertex -0.0191645 -0.15187 0.0926256
      endloop
   endfacet
   facet normal 1.11022e-16 -0.906308 0.422618
      outer loop
         vertex 0.01875 -0.151701 0.0929873
         vertex 0.0180972 -0.151561 0.0932887
         vertex 0.02225 -0.154263 0.0874931
      endloop
   endfacet
   facet normal 1.11022e-16 -0.906308 0.422618
      outer loop
         vertex 0.0216448 -0.15306 0.0900735
         vertex 0.0213122 -0.152784 0.0906651
         vertex 0.02225 -0.154263 0.0874931
      endloop
   endfacet
   facet normal 1.11022e-16 -0.906308 0.422618
      outer loop
         vertex 0.0216448 -0.171526 0.050473
         vertex 0.0219074 -0.171237 0.0510929
         vertex 0.0159817 -0.173265 0.046744
      endloop
   endfacet
   facet normal 1.11022e-16 -0.906308 0.422618
      outer loop
         vertex 0.0167054 -0.173217 0.0468478
         vertex 0.0174131 -0.173136 0.0470197
         vertex 0.0209131 -0.172062 0.0493244
      endloop
   endfacet
   facet normal 1.11022e-16 -0.906308 0.422618
      outer loop
         vertex -0.02205 -0.170323 0.0530534
         vertex -0.0172131 -0.173136 0.0470197
         vertex -0.0165054 -0.173217 0.0468478
      endloop
   endfacet
   facet normal 1.11022e-16 -0.906308 0.422618
      outer loop
         vertex -0.0191645 -0.172716 0.0479208
         vertex -0.01855 -0.172885 0.0475592
         vertex -0.02205 -0.170323 0.0530534
      endloop
   endfacet
   facet normal 1.11022e-16 -0.906308 0.422618
      outer loop
         vertex -0.02205 -0.170323 0.0530534
         vertex -0.0207131 -0.172062 0.0493244
         vertex -0.020252 -0.172302 0.0488083
      endloop
   endfacet
   facet normal 1.11022e-16 -0.906308 0.422618
      outer loop
         vertex -0.021897 -0.170938 0.0517343
         vertex -0.0217074 -0.171237 0.0510929
         vertex -0.0207131 -0.172062 0.0493244
      endloop
   endfacet
   facet normal 1.11022e-16 -0.906308 0.422618
      outer loop
         vertex -0.021897 -0.153648 0.0888121
         vertex -0.0220117 -0.153954 0.0881562
         vertex -0.0172131 -0.15145 0.0935267
      endloop
   endfacet
   facet normal 1.11022e-16 -0.906308 0.422618
      outer loop
         vertex -0.0197339 -0.152065 0.0922077
         vertex -0.020252 -0.152284 0.0917381
         vertex -0.0172131 -0.15145 0.0935267
      endloop
   endfacet
   facet normal 1.11022e-16 -0.906308 0.422618
      outer loop
         vertex -0.02205 -0.154263 0.0874931
         vertex -0.0157817 -0.151321 0.0938025
         vertex -0.0165054 -0.15137 0.0936986
      endloop
   endfacet
   facet normal 1.11022e-16 -0.906308 0.422618
      outer loop
         vertex 0.02225 -0.154263 0.0874931
         vertex 0.0174131 -0.15145 0.0935267
         vertex 0.0167054 -0.15137 0.0936986
      endloop
   endfacet
   facet normal 1.11022e-16 -0.906308 0.422618
      outer loop
         vertex 0.020452 -0.152284 0.0917381
         vertex 0.0199339 -0.152065 0.0922077
         vertex 0.02225 -0.154263 0.0874931
      endloop
   endfacet
   facet normal 1.11022e-16 -0.906308 0.422618
      outer loop
         vertex 0.020452 -0.172302 0.0488083
         vertex 0.0209131 -0.172062 0.0493244
         vertex 0.0174131 -0.173136 0.0470197
      endloop
   endfacet
   facet normal 1.11022e-16 -0.906308 0.422618
      outer loop
         vertex -0.0178972 -0.173025 0.0472577
         vertex -0.0172131 -0.173136 0.0470197
         vertex -0.02205 -0.170323 0.0530534
      endloop
   endfacet
   facet normal 1.11022e-16 -0.906308 0.422618
      outer loop
         vertex -0.0211122 -0.171802 0.0498813
         vertex -0.0207131 -0.172062 0.0493244
         vertex -0.0217074 -0.171237 0.0510929
      endloop
   endfacet
   facet normal 1.11022e-16 -0.906308 0.422618
      outer loop
         vertex -0.0214448 -0.15306 0.0900735
         vertex -0.0217074 -0.153349 0.0894535
         vertex -0.0172131 -0.15145 0.0935267
      endloop
   endfacet
   facet normal 1.11022e-16 -0.906308 0.422618
      outer loop
         vertex -0.02205 -0.154263 0.0874931
         vertex -0.01505 -0.151305 0.0938372
         vertex -0.0157817 -0.151321 0.0938025
      endloop
   endfacet
   facet normal 1.11022e-16 -0.906308 0.422618
      outer loop
         vertex 0.0180972 -0.151561 0.0932887
         vertex 0.0174131 -0.15145 0.0935267
         vertex 0.02225 -0.154263 0.0874931
      endloop
   endfacet
   facet normal 1.11022e-16 -0.906308 0.422618
      outer loop
         vertex 0.02225 -0.170323 0.0530534
         vertex 0.01525 -0.173281 0.0467092
         vertex 0.0159817 -0.173265 0.046744
      endloop
   endfacet
   facet normal 1.11022e-16 -0.906308 0.422618
      outer loop
         vertex -0.020252 -0.172302 0.0488083
         vertex -0.0197339 -0.172521 0.0483387
         vertex -0.02205 -0.170323 0.0530534
      endloop
   endfacet
   facet normal 1.11022e-16 -0.906308 0.422618
      outer loop
         vertex -0.01505 -0.151305 0.0938372
         vertex -0.02205 -0.154263 0.0874931
         vertex -0.02205 -0.170323 0.0530534
      endloop
   endfacet
   facet normal 1.11022e-16 -0.906308 0.422618
      outer loop
         vertex -0.0165054 -0.15137 0.0936986
         vertex -0.0172131 -0.15145 0.0935267
         vertex -0.02205 -0.154263 0.0874931
      endloop
   endfacet
   facet normal 1.11022e-16 -0.906308 0.422618
      outer loop
         vertex 0.0167054 -0.15137 0.0936986
         vertex 0.0159817 -0.151321 0.0938025
         vertex 0.02225 -0.154263 0.0874931
      endloop
   endfacet
   facet normal 1.11022e-16 -0.906308 0.422618
      outer loop
         vertex -0.01505 -0.151305 0.0938372
         vertex -0.01505 -0.173281 0.0467092
         vertex 0.02225 -0.170323 0.0530534
      endloop
   endfacet
   facet normal 1.11022e-16 -0.906308 0.422618
      outer loop
         vertex 0.02225 -0.170323 0.0530534
         vertex -0.01505 -0.173281 0.0467092
         vertex 0.01525 -0.173281 0.0467092
      endloop
   endfacet
   facet normal 1.11022e-16 -0.906308 0.422618
      outer loop
         vertex -0.0165054 -0.173217 0.0468478
         vertex -0.0157817 -0.173265 0.046744
         vertex -0.02205 -0.170323 0.0530534
      endloop
   endfacet
   facet normal 1.11022e-16 -0.906308 0.422618
      outer loop
         vertex -0.0220117 -0.153954 0.0881562
         vertex -0.02205 -0.154263 0.0874931
         vertex -0.0172131 -0.15145 0.0935267
      endloop
   endfacet
   facet normal 1.11022e-16 -0.906308 0.422618
      outer loop
         vertex 0.0159817 -0.151321 0.0938025
         vertex 0.01525 -0.151305 0.0938372
         vertex 0.02225 -0.154263 0.0874931
      endloop
   endfacet
   facet normal 1.11022e-16 -0.906308 0.422618
      outer loop
         vertex 0.0222117 -0.170632 0.0523902
         vertex 0.02225 -0.170323 0.0530534
         vertex 0.0159817 -0.173265 0.046744
      endloop
   endfacet
   facet normal 1.11022e-16 -0.906308 0.422618
      outer loop
         vertex -0.02205 -0.170323 0.0530534
         vertex -0.01505 -0.173281 0.0467092
         vertex -0.01505 -0.151305 0.0938372
      endloop
   endfacet
   facet normal 1.11022e-16 -0.906308 0.422618
      outer loop
         vertex 0.02225 -0.170323 0.0530534
         vertex 0.02225 -0.154263 0.0874931
         vertex -0.01505 -0.151305 0.0938372
      endloop
   endfacet
   facet normal 1.11022e-16 -0.906308 0.422618
      outer loop
         vertex 0.01525 -0.151305 0.0938372
         vertex -0.01505 -0.151305 0.0938372
         vertex 0.02225 -0.154263 0.0874931
      endloop
   endfacet
   facet normal 1.11022e-16 -0.906308 0.422618
      outer loop
         vertex -0.0157817 -0.173265 0.046744
         vertex -0.01505 -0.173281 0.0467092
         vertex -0.02205 -0.170323 0.0530534
      endloop
   endfacet
   facet normal -1.11022e-16 0.906308 -0.422618
      outer loop
         vertex -0.020252 -0.0142985 0.0273945
         vertex -0.01855 -0.013716 0.0286436
         vertex -0.0178972 -0.0135754 0.0289451
      endloop
   endfacet
   facet normal -1.11022e-16 0.906308 -0.422618
      outer loop
         vertex -0.020252 -0.0142985 0.0273945
         vertex -0.0197339 -0.0140795 0.0278641
         vertex -0.0191645 -0.0138847 0.028282
      endloop
   endfacet
   facet normal -1.11022e-16 0.906308 -0.422618
      outer loop
         vertex -0.0157817 -0.0133359 0.0294588
         vertex -0.021897 -0.0156629 0.0244685
         vertex -0.0217074 -0.0153638 0.0251099
      endloop
   endfacet
   facet normal -1.11022e-16 0.906308 -0.422618
      outer loop
         vertex 0.0199339 -0.034536 -0.0160049
         vertex 0.01875 -0.0348995 -0.0167845
         vertex 0.0180972 -0.0350401 -0.0170859
      endloop
   endfacet
   facet normal -1.11022e-16 0.906308 -0.422618
      outer loop
         vertex 0.020452 -0.0142985 0.0273945
         vertex 0.0216448 -0.0150748 0.0257298
         vertex 0.0219074 -0.0153638 0.0251099
      endloop
   endfacet
   facet normal -1.11022e-16 0.906308 -0.422618
      outer loop
         vertex 0.020452 -0.0142985 0.0273945
         vertex 0.0209131 -0.0145391 0.0268784
         vertex 0.0213122 -0.0147988 0.0263215
      endloop
   endfacet
   facet normal -1.11022e-16 0.906308 -0.422618
      outer loop
         vertex -0.0191645 -0.0138847 0.028282
         vertex -0.01855 -0.013716 0.0286436
         vertex -0.020252 -0.0142985 0.0273945
      endloop
   endfacet
   facet normal -1.11022e-16 0.906308 -0.422618
      outer loop
         vertex -0.0172131 -0.0134645 0.0291831
         vertex -0.0211122 -0.0147988 0.0263215
         vertex -0.0207131 -0.0145391 0.0268784
      endloop
   endfacet
   facet normal -1.11022e-16 0.906308 -0.422618
      outer loop
         vertex -0.0217074 -0.0153638 0.0251099
         vertex -0.0214448 -0.0150748 0.0257298
         vertex -0.0157817 -0.0133359 0.0294588
      endloop
   endfacet
   facet normal -1.11022e-16 0.906308 -0.422618
      outer loop
         vertex 0.0199339 -0.034536 -0.0160049
         vertex 0.0193645 -0.0347308 -0.0164228
         vertex 0.01875 -0.0348995 -0.0167845
      endloop
   endfacet
   facet normal -1.11022e-16 0.906308 -0.422618
      outer loop
         vertex 0.0213122 -0.0147988 0.0263215
         vertex 0.0216448 -0.0150748 0.0257298
         vertex 0.020452 -0.0142985 0.0273945
      endloop
   endfacet
   facet normal -1.11022e-16 0.906308 -0.422618
      outer loop
         vertex 0.0222117 -0.0159688 0.0238126
         vertex 0.0193645 -0.0138847 0.028282
         vertex 0.0199339 -0.0140795 0.0278641
      endloop
   endfacet
   facet normal -1.11022e-16 0.906308 -0.422618
      outer loop
         vertex 0.0222117 -0.0159688 0.0238126
         vertex 0.0180972 -0.0135754 0.0289451
         vertex 0.01875 -0.013716 0.0286436
      endloop
   endfacet
   facet normal -1.11022e-16 0.906308 -0.422618
      outer loop
         vertex 0.0222117 -0.0159688 0.0238126
         vertex 0.0159817 -0.0133359 0.0294588
         vertex 0.0167054 -0.0133843 0.029355
      endloop
   endfacet
   facet normal -1.11022e-16 0.906308 -0.422618
      outer loop
         vertex -0.0211122 -0.0147988 0.0263215
         vertex -0.0172131 -0.0134645 0.0291831
         vertex -0.0165054 -0.0133843 0.029355
      endloop
   endfacet
   facet normal -1.11022e-16 0.906308 -0.422618
      outer loop
         vertex -0.0207131 -0.0145391 0.0268784
         vertex -0.020252 -0.0142985 0.0273945
         vertex -0.0172131 -0.0134645 0.0291831
      endloop
   endfacet
   facet normal -1.11022e-16 0.906308 -0.422618
      outer loop
         vertex -0.0157817 -0.0133359 0.0294588
         vertex -0.0220117 -0.0159688 0.0238126
         vertex -0.021897 -0.0156629 0.0244685
      endloop
   endfacet
   facet normal -1.11022e-16 0.906308 -0.422618
      outer loop
         vertex -0.021897 -0.0329526 -0.0126093
         vertex -0.0211122 -0.0338167 -0.0144623
         vertex -0.0214448 -0.0335408 -0.0138707
      endloop
   endfacet
   facet normal -1.11022e-16 0.906308 -0.422618
      outer loop
         vertex -0.021897 -0.0329526 -0.0126093
         vertex -0.020252 -0.034317 -0.0155353
         vertex -0.0207131 -0.0340764 -0.0150193
      endloop
   endfacet
   facet normal -1.11022e-16 0.906308 -0.422618
      outer loop
         vertex 0.0199339 -0.034536 -0.0160049
         vertex 0.0167054 -0.0352312 -0.0174958
         vertex 0.0159817 -0.0352796 -0.0175997
      endloop
   endfacet
   facet normal -1.11022e-16 0.906308 -0.422618
      outer loop
         vertex 0.0180972 -0.0350401 -0.0170859
         vertex 0.0174131 -0.035151 -0.0173239
         vertex 0.0199339 -0.034536 -0.0160049
      endloop
   endfacet
   facet normal -1.11022e-16 0.906308 -0.422618
      outer loop
         vertex 0.01525 -0.0352958 -0.0176344
         vertex 0.0209131 -0.0340764 -0.0150193
         vertex 0.020452 -0.034317 -0.0155353
      endloop
   endfacet
   facet normal -1.11022e-16 0.906308 -0.422618
      outer loop
         vertex 0.0219074 -0.0153638 0.0251099
         vertex 0.022097 -0.0156629 0.0244685
         vertex 0.020452 -0.0142985 0.0273945
      endloop
   endfacet
   facet normal -1.11022e-16 0.906308 -0.422618
      outer loop
         vertex 0.01875 -0.013716 0.0286436
         vertex 0.0193645 -0.0138847 0.028282
         vertex 0.0222117 -0.0159688 0.0238126
      endloop
   endfacet
   facet normal -1.11022e-16 0.906308 -0.422618
      outer loop
         vertex 0.0167054 -0.0133843 0.029355
         vertex 0.0174131 -0.0134645 0.0291831
         vertex 0.0222117 -0.0159688 0.0238126
      endloop
   endfacet
   facet normal -1.11022e-16 0.906308 -0.422618
      outer loop
         vertex -0.0178972 -0.0135754 0.0289451
         vertex -0.0172131 -0.0134645 0.0291831
         vertex -0.020252 -0.0142985 0.0273945
      endloop
   endfacet
   facet normal -1.11022e-16 0.906308 -0.422618
      outer loop
         vertex -0.0157817 -0.0133359 0.0294588
         vertex -0.02205 -0.016278 0.0231494
         vertex -0.0220117 -0.0159688 0.0238126
      endloop
   endfacet
   facet normal -1.11022e-16 0.906308 -0.422618
      outer loop
         vertex -0.020252 -0.034317 -0.0155353
         vertex -0.021897 -0.0329526 -0.0126093
         vertex -0.0220117 -0.0326467 -0.0119534
      endloop
   endfacet
   facet normal -1.11022e-16 0.906308 -0.422618
      outer loop
         vertex -0.0207131 -0.0340764 -0.0150193
         vertex -0.0211122 -0.0338167 -0.0144623
         vertex -0.021897 -0.0329526 -0.0126093
      endloop
   endfacet
   facet normal -1.11022e-16 0.906308 -0.422618
      outer loop
         vertex 0.0174131 -0.035151 -0.0173239
         vertex 0.0167054 -0.0352312 -0.0174958
         vertex 0.0199339 -0.034536 -0.0160049
      endloop
   endfacet
   facet normal -1.11022e-16 0.906308 -0.422618
      outer loop
         vertex 0.01525 -0.0352958 -0.0176344
         vertex 0.0213122 -0.0338167 -0.0144623
         vertex 0.0209131 -0.0340764 -0.0150193
      endloop
   endfacet
   facet normal -1.11022e-16 0.906308 -0.422618
      outer loop
         vertex 0.01525 -0.0352958 -0.0176344
         vertex 0.0219074 -0.0332517 -0.0132507
         vertex 0.0216448 -0.0335408 -0.0138707
      endloop
   endfacet
   facet normal -1.11022e-16 0.906308 -0.422618
      outer loop
         vertex 0.01525 -0.0352958 -0.0176344
         vertex 0.0222117 -0.0326467 -0.0119534
         vertex 0.022097 -0.0329526 -0.0126093
      endloop
   endfacet
   facet normal -1.11022e-16 0.906308 -0.422618
      outer loop
         vertex 0.0199339 -0.0140795 0.0278641
         vertex 0.020452 -0.0142985 0.0273945
         vertex 0.0222117 -0.0159688 0.0238126
      endloop
   endfacet
   facet normal -1.11022e-16 0.906308 -0.422618
      outer loop
         vertex 0.0222117 -0.0159688 0.0238126
         vertex 0.01525 -0.0133197 0.0294936
         vertex 0.0159817 -0.0133359 0.0294588
      endloop
   endfacet
   facet normal -1.11022e-16 0.906308 -0.422618
      outer loop
         vertex -0.0214448 -0.0150748 0.0257298
         vertex -0.0211122 -0.0147988 0.0263215
         vertex -0.0157817 -0.0133359 0.0294588
      endloop
   endfacet
   facet normal -1.11022e-16 0.906308 -0.422618
      outer loop
         vertex -0.0214448 -0.0335408 -0.0138707
         vertex -0.0217074 -0.0332517 -0.0132507
         vertex -0.021897 -0.0329526 -0.0126093
      endloop
   endfacet
   facet normal -1.11022e-16 0.906308 -0.422618
      outer loop
         vertex -0.02205 -0.0323375 -0.0112903
         vertex -0.0172131 -0.035151 -0.0173239
         vertex -0.0178972 -0.0350401 -0.0170859
      endloop
   endfacet
   facet normal -1.11022e-16 0.906308 -0.422618
      outer loop
         vertex 0.020452 -0.034317 -0.0155353
         vertex 0.0199339 -0.034536 -0.0160049
         vertex 0.01525 -0.0352958 -0.0176344
      endloop
   endfacet
   facet normal -1.11022e-16 0.906308 -0.422618
      outer loop
         vertex 0.022097 -0.0329526 -0.0126093
         vertex 0.0219074 -0.0332517 -0.0132507
         vertex 0.01525 -0.0352958 -0.0176344
      endloop
   endfacet
   facet normal -1.11022e-16 0.906308 -0.422618
      outer loop
         vertex 0.0174131 -0.0134645 0.0291831
         vertex 0.0180972 -0.0135754 0.0289451
         vertex 0.0222117 -0.0159688 0.0238126
      endloop
   endfacet
   facet normal -1.11022e-16 0.906308 -0.422618
      outer loop
         vertex -0.0165054 -0.0133843 0.029355
         vertex -0.0157817 -0.0133359 0.0294588
         vertex -0.0211122 -0.0147988 0.0263215
      endloop
   endfacet
   facet normal -1.11022e-16 0.906308 -0.422618
      outer loop
         vertex -0.02205 -0.0323375 -0.0112903
         vertex -0.0197339 -0.034536 -0.0160049
         vertex -0.020252 -0.034317 -0.0155353
      endloop
   endfacet
   facet normal -1.11022e-16 0.906308 -0.422618
      outer loop
         vertex -0.02205 -0.0323375 -0.0112903
         vertex -0.01855 -0.0348995 -0.0167845
         vertex -0.0191645 -0.0347308 -0.0164228
      endloop
   endfacet
   facet normal -1.11022e-16 0.906308 -0.422618
      outer loop
         vertex -0.02205 -0.0323375 -0.0112903
         vertex -0.0165054 -0.0352312 -0.0174958
         vertex -0.0172131 -0.035151 -0.0173239
      endloop
   endfacet
   facet normal -1.11022e-16 0.906308 -0.422618
      outer loop
         vertex -0.02205 -0.0323375 -0.0112903
         vertex -0.01505 -0.0352958 -0.0176344
         vertex -0.0157817 -0.0352796 -0.0175997
      endloop
   endfacet
   facet normal -1.11022e-16 0.906308 -0.422618
      outer loop
         vertex 0.0216448 -0.0335408 -0.0138707
         vertex 0.0213122 -0.0338167 -0.0144623
         vertex 0.01525 -0.0352958 -0.0176344
      endloop
   endfacet
   facet normal -1.11022e-16 0.906308 -0.422618
      outer loop
         vertex 0.022097 -0.0156629 0.0244685
         vertex 0.0222117 -0.0159688 0.0238126
         vertex 0.020452 -0.0142985 0.0273945
      endloop
   endfacet
   facet normal -1.11022e-16 0.906308 -0.422618
      outer loop
         vertex -0.0157817 -0.0133359 0.0294588
         vertex -0.01505 -0.0133197 0.0294936
         vertex -0.02205 -0.016278 0.0231494
      endloop
   endfacet
   facet normal -1.11022e-16 0.906308 -0.422618
      outer loop
         vertex 0.02225 -0.0323375 -0.0112903
         vertex -0.02205 -0.0323375 -0.0112903
         vertex -0.02205 -0.016278 0.0231494
      endloop
   endfacet
   facet normal -1.11022e-16 0.906308 -0.422618
      outer loop
         vertex -0.0191645 -0.0347308 -0.0164228
         vertex -0.0197339 -0.034536 -0.0160049
         vertex -0.02205 -0.0323375 -0.0112903
      endloop
   endfacet
   facet normal -1.11022e-16 0.906308 -0.422618
      outer loop
         vertex -0.0157817 -0.0352796 -0.0175997
         vertex -0.0165054 -0.0352312 -0.0174958
         vertex -0.02205 -0.0323375 -0.0112903
      endloop
   endfacet
   facet normal -1.11022e-16 0.906308 -0.422618
      outer loop
         vertex 0.02225 -0.0323375 -0.0112903
         vertex 0.01525 -0.0352958 -0.0176344
         vertex -0.01505 -0.0352958 -0.0176344
      endloop
   endfacet
   facet normal -1.11022e-16 0.906308 -0.422618
      outer loop
         vertex 0.01525 -0.0352958 -0.0176344
         vertex 0.02225 -0.0323375 -0.0112903
         vertex 0.0222117 -0.0326467 -0.0119534
      endloop
   endfacet
   facet normal -1.11022e-16 0.906308 -0.422618
      outer loop
         vertex 0.0222117 -0.0159688 0.0238126
         vertex 0.02225 -0.016278 0.0231494
         vertex 0.01525 -0.0133197 0.0294936
      endloop
   endfacet
   facet normal -1.11022e-16 0.906308 -0.422618
      outer loop
         vertex -0.02205 -0.016278 0.0231494
         vertex 0.01525 -0.0133197 0.0294936
         vertex 0.02225 -0.0323375 -0.0112903
      endloop
   endfacet
   facet normal -1.11022e-16 0.906308 -0.422618
      outer loop
         vertex -0.0178972 -0.0350401 -0.0170859
         vertex -0.01855 -0.0348995 -0.0167845
         vertex -0.02205 -0.0323375 -0.0112903
      endloop
   endfacet
   facet normal -1.11022e-16 0.906308 -0.422618
      outer loop
         vertex 0.0159817 -0.0352796 -0.0175997
         vertex 0.01525 -0.0352958 -0.0176344
         vertex 0.0199339 -0.034536 -0.0160049
      endloop
   endfacet
   facet normal -1.11022e-16 0.906308 -0.422618
      outer loop
         vertex -0.01505 -0.0133197 0.0294936
         vertex 0.01525 -0.0133197 0.0294936
         vertex -0.02205 -0.016278 0.0231494
      endloop
   endfacet
   facet normal -1.11022e-16 0.906308 -0.422618
      outer loop
         vertex -0.01505 -0.0352958 -0.0176344
         vertex -0.02205 -0.0323375 -0.0112903
         vertex 0.02225 -0.0323375 -0.0112903
      endloop
   endfacet
   facet normal -1.11022e-16 0.906308 -0.422618
      outer loop
         vertex -0.0220117 -0.0326467 -0.0119534
         vertex -0.02205 -0.0323375 -0.0112903
         vertex -0.020252 -0.034317 -0.0155353
      endloop
   endfacet
   facet normal -1.11022e-16 0.906308 -0.422618
      outer loop
         vertex 0.02225 -0.016278 0.0231494
         vertex 0.02225 -0.0323375 -0.0112903
         vertex 0.01525 -0.0133197 0.0294936
      endloop
   endfacet
   facet normal -1 2.61058e-17 3.18685e-16
      outer loop
         vertex -0.02205 -0.016278 0.0231494
         vertex -0.02205 -0.154263 0.0874931
         vertex -0.0220117 -0.153954 0.0881562
      endloop
   endfacet
   facet normal -0.994522 0.0441756 0.094735
      outer loop
         vertex -0.0220117 -0.0159688 0.0238126
         vertex -0.0220117 -0.153954 0.0881562
         vertex -0.021897 -0.153648 0.0888121
      endloop
   endfacet
   facet normal -0.978148 0.0878673 0.188432
      outer loop
         vertex -0.021897 -0.0156629 0.0244685
         vertex -0.021897 -0.153648 0.0888121
         vertex -0.0217074 -0.153349 0.0894535
      endloop
   endfacet
   facet normal -0.951057 0.130596 0.280065
      outer loop
         vertex -0.0217074 -0.0153638 0.0251099
         vertex -0.0217074 -0.153349 0.0894535
         vertex -0.0214448 -0.15306 0.0900735
      endloop
   endfacet
   facet normal -0.913545 0.171894 0.368629
      outer loop
         vertex -0.0214448 -0.0150748 0.0257298
         vertex -0.0214448 -0.15306 0.0900735
         vertex -0.0211122 -0.152784 0.0906651
      endloop
   endfacet
   facet normal -0.866025 0.211309 0.453154
      outer loop
         vertex -0.0211122 -0.0147988 0.0263215
         vertex -0.0211122 -0.152784 0.0906651
         vertex -0.0207131 -0.152525 0.0912221
      endloop
   endfacet
   facet normal -0.809017 0.248409 0.532714
      outer loop
         vertex -0.0207131 -0.0145391 0.0268784
         vertex -0.0207131 -0.152525 0.0912221
         vertex -0.020252 -0.152284 0.0917381
      endloop
   endfacet
   facet normal -0.743145 0.282787 0.606438
      outer loop
         vertex -0.020252 -0.0142985 0.0273945
         vertex -0.020252 -0.152284 0.0917381
         vertex -0.0197339 -0.152065 0.0922077
      endloop
   endfacet
   facet normal -0.669131 0.314067 0.673518
      outer loop
         vertex -0.0197339 -0.0140795 0.0278641
         vertex -0.0197339 -0.152065 0.0922077
         vertex -0.0191645 -0.15187 0.0926256
      endloop
   endfacet
   facet normal -0.587785 0.341905 0.733218
      outer loop
         vertex -0.0191645 -0.0138847 0.028282
         vertex -0.0191645 -0.15187 0.0926256
         vertex -0.01855 -0.151701 0.0929873
      endloop
   endfacet
   facet normal -0.5 0.365998 0.784886
      outer loop
         vertex -0.01855 -0.013716 0.0286436
         vertex -0.01855 -0.151701 0.0929873
         vertex -0.0178972 -0.151561 0.0932887
      endloop
   endfacet
   facet normal -0.406737 0.386081 0.827953
      outer loop
         vertex -0.0178972 -0.0135754 0.0289451
         vertex -0.0178972 -0.151561 0.0932887
         vertex -0.0172131 -0.15145 0.0935267
      endloop
   endfacet
   facet normal -0.309017 0.401934 0.86195
      outer loop
         vertex -0.0172131 -0.0134645 0.0291831
         vertex -0.0172131 -0.15145 0.0935267
         vertex -0.0165054 -0.15137 0.0936986
      endloop
   endfacet
   facet normal -0.207912 0.413383 0.886503
      outer loop
         vertex -0.0165054 -0.0133843 0.029355
         vertex -0.0165054 -0.15137 0.0936986
         vertex -0.0157817 -0.151321 0.0938025
      endloop
   endfacet
   facet normal -0.104528 0.420303 0.901343
      outer loop
         vertex -0.0157817 -0.0133359 0.0294588
         vertex -0.0157817 -0.151321 0.0938025
         vertex -0.01505 -0.151305 0.0938372
      endloop
   endfacet
   facet normal -2.05462e-16 0.422618 0.906308
      outer loop
         vertex -0.01505 -0.151305 0.0938372
         vertex -0.01505 -0.0133197 0.0294936
         vertex -0.0157817 -0.0133359 0.0294588
      endloop
   endfacet
   facet normal -0.104528 0.420303 0.901343
      outer loop
         vertex -0.0157817 -0.151321 0.0938025
         vertex -0.0157817 -0.0133359 0.0294588
         vertex -0.0165054 -0.0133843 0.029355
      endloop
   endfacet
   facet normal -0.207912 0.413383 0.886503
      outer loop
         vertex -0.0165054 -0.15137 0.0936986
         vertex -0.0165054 -0.0133843 0.029355
         vertex -0.0172131 -0.0134645 0.0291831
      endloop
   endfacet
   facet normal -0.309017 0.401934 0.86195
      outer loop
         vertex -0.0172131 -0.15145 0.0935267
         vertex -0.0172131 -0.0134645 0.0291831
         vertex -0.0178972 -0.0135754 0.0289451
      endloop
   endfacet
   facet normal -0.406737 0.386081 0.827953
      outer loop
         vertex -0.0178972 -0.151561 0.0932887
         vertex -0.0178972 -0.0135754 0.0289451
         vertex -0.01855 -0.013716 0.0286436
      endloop
   endfacet
   facet normal -0.5 0.365998 0.784886
      outer loop
         vertex -0.01855 -0.151701 0.0929873
         vertex -0.01855 -0.013716 0.0286436
         vertex -0.0191645 -0.0138847 0.028282
      endloop
   endfacet
   facet normal -0.587785 0.341905 0.733218
      outer loop
         vertex -0.0191645 -0.15187 0.0926256
         vertex -0.0191645 -0.0138847 0.028282
         vertex -0.0197339 -0.0140795 0.0278641
      endloop
   endfacet
   facet normal -0.669131 0.314067 0.673518
      outer loop
         vertex -0.0197339 -0.152065 0.0922077
         vertex -0.0197339 -0.0140795 0.0278641
         vertex -0.020252 -0.0142985 0.0273945
      endloop
   endfacet
   facet normal -0.743145 0.282787 0.606438
      outer loop
         vertex -0.020252 -0.152284 0.0917381
         vertex -0.020252 -0.0142985 0.0273945
         vertex -0.0207131 -0.0145391 0.0268784
      endloop
   endfacet
   facet normal -0.809017 0.248409 0.532714
      outer loop
         vertex -0.0207131 -0.152525 0.0912221
         vertex -0.0207131 -0.0145391 0.0268784
         vertex -0.0211122 -0.0147988 0.0263215
      endloop
   endfacet
   facet normal -0.866025 0.211309 0.453154
      outer loop
         vertex -0.0211122 -0.152784 0.0906651
         vertex -0.0211122 -0.0147988 0.0263215
         vertex -0.0214448 -0.0150748 0.0257298
      endloop
   endfacet
   facet normal -0.913545 0.171894 0.368629
      outer loop
         vertex -0.0214448 -0.15306 0.0900735
         vertex -0.0214448 -0.0150748 0.0257298
         vertex -0.0217074 -0.0153638 0.0251099
      endloop
   endfacet
   facet normal -0.951057 0.130596 0.280065
      outer loop
         vertex -0.0217074 -0.153349 0.0894535
         vertex -0.0217074 -0.0153638 0.0251099
         vertex -0.021897 -0.0156629 0.0244685
      endloop
   endfacet
   facet normal -0.978148 0.0878673 0.188432
      outer loop
         vertex -0.021897 -0.153648 0.0888121
         vertex -0.021897 -0.0156629 0.0244685
         vertex -0.0220117 -0.0159688 0.0238126
      endloop
   endfacet
   facet normal -0.994522 0.0441756 0.094735
      outer loop
         vertex -0.0220117 -0.153954 0.0881562
         vertex -0.0220117 -0.0159688 0.0238126
         vertex -0.02205 -0.016278 0.0231494
      endloop
   endfacet
   facet normal -1 -1.11022e-16 2.77556e-17
      outer loop
         vertex -0.02205 -0.016278 0.0231494
         vertex -0.02205 -0.0323375 -0.0112903
         vertex -0.02205 -0.170323 0.0530534
      endloop
   endfacet
   facet normal -1 -1.11022e-16 2.77556e-17
      outer loop
         vertex -0.02205 -0.170323 0.0530534
         vertex -0.02205 -0.154263 0.0874931
         vertex -0.02205 -0.016278 0.0231494
      endloop
   endfacet
   facet normal 8.29973e-17 -0.422618 -0.906308
      outer loop
         vertex -0.01505 -0.0352958 -0.0176344
         vertex -0.01505 -0.173281 0.0467092
         vertex -0.0157817 -0.173265 0.046744
      endloop
   endfacet
   facet normal -0.104528 -0.420303 -0.901343
      outer loop
         vertex -0.0157817 -0.0352796 -0.0175997
         vertex -0.0157817 -0.173265 0.046744
         vertex -0.0165054 -0.173217 0.0468478
      endloop
   endfacet
   facet normal -0.207912 -0.413383 -0.886503
      outer loop
         vertex -0.0165054 -0.0352312 -0.0174958
         vertex -0.0165054 -0.173217 0.0468478
         vertex -0.0172131 -0.173136 0.0470197
      endloop
   endfacet
   facet normal -0.309017 -0.401934 -0.86195
      outer loop
         vertex -0.0172131 -0.035151 -0.0173239
         vertex -0.0172131 -0.173136 0.0470197
         vertex -0.0178972 -0.173025 0.0472577
      endloop
   endfacet
   facet normal -0.406737 -0.386081 -0.827953
      outer loop
         vertex -0.0178972 -0.0350401 -0.0170859
         vertex -0.0178972 -0.173025 0.0472577
         vertex -0.01855 -0.172885 0.0475592
      endloop
   endfacet
   facet normal -0.5 -0.365998 -0.784886
      outer loop
         vertex -0.01855 -0.0348995 -0.0167845
         vertex -0.01855 -0.172885 0.0475592
         vertex -0.0191645 -0.172716 0.0479208
      endloop
   endfacet
   facet normal -0.587785 -0.341905 -0.733218
      outer loop
         vertex -0.0191645 -0.0347308 -0.0164228
         vertex -0.0191645 -0.172716 0.0479208
         vertex -0.0197339 -0.172521 0.0483387
      endloop
   endfacet
   facet normal -0.669131 -0.314067 -0.673518
      outer loop
         vertex -0.0197339 -0.034536 -0.0160049
         vertex -0.0197339 -0.172521 0.0483387
         vertex -0.020252 -0.172302 0.0488083
      endloop
   endfacet
   facet normal -0.743145 -0.282787 -0.606438
      outer loop
         vertex -0.020252 -0.034317 -0.0155353
         vertex -0.020252 -0.172302 0.0488083
         vertex -0.0207131 -0.172062 0.0493244
      endloop
   endfacet
   facet normal -0.809017 -0.248409 -0.532714
      outer loop
         vertex -0.0207131 -0.0340764 -0.0150193
         vertex -0.0207131 -0.172062 0.0493244
         vertex -0.0211122 -0.171802 0.0498813
      endloop
   endfacet
   facet normal -0.866025 -0.211309 -0.453154
      outer loop
         vertex -0.0211122 -0.0338167 -0.0144623
         vertex -0.0211122 -0.171802 0.0498813
         vertex -0.0214448 -0.171526 0.050473
      endloop
   endfacet
   facet normal -0.913545 -0.171894 -0.368629
      outer loop
         vertex -0.0214448 -0.0335408 -0.0138707
         vertex -0.0214448 -0.171526 0.050473
         vertex -0.0217074 -0.171237 0.0510929
      endloop
   endfacet
   facet normal -0.951057 -0.130596 -0.280065
      outer loop
         vertex -0.0217074 -0.0332517 -0.0132507
         vertex -0.0217074 -0.171237 0.0510929
         vertex -0.021897 -0.170938 0.0517343
      endloop
   endfacet
   facet normal -0.978148 -0.0878673 -0.188432
      outer loop
         vertex -0.021897 -0.0329526 -0.0126093
         vertex -0.021897 -0.170938 0.0517343
         vertex -0.0220117 -0.170632 0.0523902
      endloop
   endfacet
   facet normal -0.994522 -0.0441756 -0.094735
      outer loop
         vertex -0.0220117 -0.0326467 -0.0119534
         vertex -0.0220117 -0.170632 0.0523902
         vertex -0.02205 -0.170323 0.0530534
      endloop
   endfacet
   facet normal -1 -1.61574e-16 -8.37964e-17
      outer loop
         vertex -0.02205 -0.170323 0.0530534
         vertex -0.02205 -0.0323375 -0.0112903
         vertex -0.0220117 -0.0326467 -0.0119534
      endloop
   endfacet
   facet normal -0.994522 -0.0441756 -0.094735
      outer loop
         vertex -0.0220117 -0.170632 0.0523902
         vertex -0.0220117 -0.0326467 -0.0119534
         vertex -0.021897 -0.0329526 -0.0126093
      endloop
   endfacet
   facet normal -0.978148 -0.0878673 -0.188432
      outer loop
         vertex -0.021897 -0.170938 0.0517343
         vertex -0.021897 -0.0329526 -0.0126093
         vertex -0.0217074 -0.0332517 -0.0132507
      endloop
   endfacet
   facet normal -0.951057 -0.130596 -0.280065
      outer loop
         vertex -0.0217074 -0.171237 0.0510929
         vertex -0.0217074 -0.0332517 -0.0132507
         vertex -0.0214448 -0.0335408 -0.0138707
      endloop
   endfacet
   facet normal -0.913545 -0.171894 -0.368629
      outer loop
         vertex -0.0214448 -0.171526 0.050473
         vertex -0.0214448 -0.0335408 -0.0138707
         vertex -0.0211122 -0.0338167 -0.0144623
      endloop
   endfacet
   facet normal -0.866025 -0.211309 -0.453154
      outer loop
         vertex -0.0211122 -0.171802 0.0498813
         vertex -0.0211122 -0.0338167 -0.0144623
         vertex -0.0207131 -0.0340764 -0.0150193
      endloop
   endfacet
   facet normal -0.809017 -0.248409 -0.532714
      outer loop
         vertex -0.0207131 -0.172062 0.0493244
         vertex -0.0207131 -0.0340764 -0.0150193
         vertex -0.020252 -0.034317 -0.0155353
      endloop
   endfacet
   facet normal -0.743145 -0.282787 -0.606438
      outer loop
         vertex -0.020252 -0.172302 0.0488083
         vertex -0.020252 -0.034317 -0.0155353
         vertex -0.0197339 -0.034536 -0.0160049
      endloop
   endfacet
   facet normal -0.669131 -0.314067 -0.673518
      outer loop
         vertex -0.0197339 -0.172521 0.0483387
         vertex -0.0197339 -0.034536 -0.0160049
         vertex -0.0191645 -0.0347308 -0.0164228
      endloop
   endfacet
   facet normal -0.587785 -0.341905 -0.733218
      outer loop
         vertex -0.0191645 -0.172716 0.0479208
         vertex -0.0191645 -0.0347308 -0.0164228
         vertex -0.01855 -0.0348995 -0.0167845
      endloop
   endfacet
   facet normal -0.5 -0.365998 -0.784886
      outer loop
         vertex -0.01855 -0.172885 0.0475592
         vertex -0.01855 -0.0348995 -0.0167845
         vertex -0.0178972 -0.0350401 -0.0170859
      endloop
   endfacet
   facet normal -0.406737 -0.386081 -0.827953
      outer loop
         vertex -0.0178972 -0.173025 0.0472577
         vertex -0.0178972 -0.0350401 -0.0170859
         vertex -0.0172131 -0.035151 -0.0173239
      endloop
   endfacet
   facet normal -0.309017 -0.401934 -0.86195
      outer loop
         vertex -0.0172131 -0.173136 0.0470197
         vertex -0.0172131 -0.035151 -0.0173239
         vertex -0.0165054 -0.0352312 -0.0174958
      endloop
   endfacet
   facet normal -0.207912 -0.413383 -0.886503
      outer loop
         vertex -0.0165054 -0.173217 0.0468478
         vertex -0.0165054 -0.0352312 -0.0174958
         vertex -0.0157817 -0.0352796 -0.0175997
      endloop
   endfacet
   facet normal -0.104528 -0.420303 -0.901343
      outer loop
         vertex -0.0157817 -0.173265 0.046744
         vertex -0.0157817 -0.0352796 -0.0175997
         vertex -0.01505 -0.0352958 -0.0176344
      endloop
   endfacet
endsolid battery. Units = meters